<?xml version="1.0" standalone="no"?><!DOCTYPE svg PUBLIC "-//W3C//DTD SVG 1.1//EN" "http://www.w3.org/Graphics/SVG/1.1/DTD/svg11.dtd"><svg t="1650003526667" class="icon" viewBox="0 0 1024 1024" version="1.1" xmlns="http://www.w3.org/2000/svg" p-id="15597" xmlns:xlink="http://www.w3.org/1999/xlink" width="16" height="16"><defs><style type="text/css"></style></defs><path d="M490.752 94.72c7.808-2.624 15.872-3.712 24.32-3.712 40.32 0 75.904 32.384 74.56 74.048V859.52c0 41.408-35.648 73.408-75.52 73.408a67.2 67.2 0 0 1-47.296-17.664l-211.968-167.296h-149.12c-51.2 0-94.72-43.52-94.72-94.656V388.672c0-51.2 43.52-94.656 94.72-94.656h146.176l214.72-184.192a58.56 58.56 0 0 1 24.128-15.168z m23.296 772.288c4.992 0 9.6-4.16 9.6-7.424V162.88c0.064-2.304-3.84-5.888-8.512-5.888a23.04 23.04 0 0 0-2.304 0.128l-236.48 202.88H105.664a30.208 30.208 0 0 0-28.672 28.672v264.704c0 14.72 13.952 28.672 28.672 28.672H277.76l232.832 183.68 1.024 1.024a10.688 10.688 0 0 0 2.56 0.256z m175.936-530.816c57.92 36.8 90.112 98.368 91.008 168.32 0 63.36-30.336 125.056-83.648 161.792-6.4 1.856-10.112 3.712-16.576 3.712a26.24 26.24 0 0 1-22.08-10.112 26.432 26.432 0 0 1 6.4-36.8c39.616-26.688 61.632-71.68 61.632-118.656 0-49.6-23.872-96.512-65.28-123.2-11.904-8.32-16.512-24.832-8.256-36.8 8.32-11.904 24.832-16.512 36.8-8.256z m114.688-96.448a338.048 338.048 0 0 1 117.248 260.288 344.448 344.448 0 0 1-110.72 255.68 24.128 24.128 0 0 1-18.56 8.32 24.128 24.128 0 0 1-18.432-8.32 27.968 27.968 0 0 1 1.856-36.8 296 296 0 0 0 94.144-217.024 301.504 301.504 0 0 0-100.608-223.552c-10.176-8.256-11.968-26.624-1.856-36.736 8.32-10.176 26.816-11.968 36.928-1.92z" p-id="15598"></path></svg>